<mxfile host="app.diagrams.net" modified="2023-05-23T22:38:43.128Z" agent="Mozilla/5.0 (Windows NT 10.0; Win64; x64) AppleWebKit/537.36 (KHTML, like Gecko) Chrome/113.0.0.0 Safari/537.36" etag="Lr81zKEH6vaZkBJIjuHG" version="21.3.3" type="device">
  <diagram name="PÃ¡gina-1" id="GCZX7VxMWRKg5fza8Suk">
    <mxGraphModel dx="880" dy="496" grid="1" gridSize="10" guides="1" tooltips="1" connect="1" arrows="1" fold="1" page="1" pageScale="1" pageWidth="827" pageHeight="1169" math="0" shadow="0">
      <root>
        <mxCell id="0" />
        <mxCell id="1" parent="0" />
        <mxCell id="LXoeNeeUd0DJWKhHdyv_-38" value="" style="endArrow=none;dashed=1;html=1;dashPattern=1 3;strokeWidth=2;rounded=0;exitX=0;exitY=0;exitDx=60;exitDy=90;exitPerimeter=0;" edge="1" parent="1" source="LXoeNeeUd0DJWKhHdyv_-12">
          <mxGeometry width="50" height="50" relative="1" as="geometry">
            <mxPoint x="414" y="280" as="sourcePoint" />
            <mxPoint x="434" y="270" as="targetPoint" />
          </mxGeometry>
        </mxCell>
        <mxCell id="LXoeNeeUd0DJWKhHdyv_-12" value="" style="shape=cube;whiteSpace=wrap;html=1;boundedLbl=1;backgroundOutline=1;darkOpacity=0.05;darkOpacity2=0.1;fillColor=#0050ef;fontColor=#ffffff;strokeColor=#001DBC;shadow=1;" vertex="1" parent="1">
          <mxGeometry x="280" y="180" width="60" height="160" as="geometry" />
        </mxCell>
        <mxCell id="LXoeNeeUd0DJWKhHdyv_-13" value="" style="shape=cube;whiteSpace=wrap;html=1;boundedLbl=1;backgroundOutline=1;darkOpacity=0.05;darkOpacity2=0.1;fillColor=#76608a;fontColor=#ffffff;strokeColor=#432D57;shadow=1;" vertex="1" parent="1">
          <mxGeometry x="254" y="135" width="40" height="250" as="geometry" />
        </mxCell>
        <mxCell id="LXoeNeeUd0DJWKhHdyv_-3" value="" style="shape=cube;whiteSpace=wrap;html=1;boundedLbl=1;backgroundOutline=1;darkOpacity=0.05;darkOpacity2=0.1;fillColor=#0050ef;fontColor=#ffffff;strokeColor=#001DBC;shadow=1;" vertex="1" parent="1">
          <mxGeometry x="210" y="180" width="60" height="160" as="geometry" />
        </mxCell>
        <mxCell id="LXoeNeeUd0DJWKhHdyv_-4" value="" style="shape=cube;whiteSpace=wrap;html=1;boundedLbl=1;backgroundOutline=1;darkOpacity=0.05;darkOpacity2=0.1;fillColor=#fa6800;fontColor=#000000;strokeColor=#C73500;shadow=1;" vertex="1" parent="1">
          <mxGeometry x="644" y="225" width="46" height="100" as="geometry" />
        </mxCell>
        <mxCell id="LXoeNeeUd0DJWKhHdyv_-11" value="" style="shape=cube;whiteSpace=wrap;html=1;boundedLbl=1;backgroundOutline=1;darkOpacity=0.05;darkOpacity2=0.1;fillColor=#76608a;fontColor=#ffffff;strokeColor=#432D57;shadow=1;" vertex="1" parent="1">
          <mxGeometry x="184" y="135" width="40" height="250" as="geometry" />
        </mxCell>
        <mxCell id="LXoeNeeUd0DJWKhHdyv_-7" value="" style="shape=cube;whiteSpace=wrap;html=1;boundedLbl=1;backgroundOutline=1;darkOpacity=0.05;darkOpacity2=0.1;fillColor=#0050ef;fontColor=#ffffff;strokeColor=#001DBC;shadow=1;" vertex="1" parent="1">
          <mxGeometry x="134" y="180" width="60" height="160" as="geometry" />
        </mxCell>
        <mxCell id="LXoeNeeUd0DJWKhHdyv_-9" value="2x1" style="text;html=1;strokeColor=none;fillColor=none;align=center;verticalAlign=middle;whiteSpace=wrap;rounded=0;rotation=-90;" vertex="1" parent="1">
          <mxGeometry x="144" y="245" width="60" height="30" as="geometry" />
        </mxCell>
        <mxCell id="LXoeNeeUd0DJWKhHdyv_-14" value="" style="shape=cube;whiteSpace=wrap;html=1;boundedLbl=1;backgroundOutline=1;darkOpacity=0.05;darkOpacity2=0.1;fillColor=#0050ef;fontColor=#ffffff;strokeColor=#001DBC;shadow=1;" vertex="1" parent="1">
          <mxGeometry x="510" y="180" width="60" height="160" as="geometry" />
        </mxCell>
        <mxCell id="LXoeNeeUd0DJWKhHdyv_-15" value="" style="shape=cube;whiteSpace=wrap;html=1;boundedLbl=1;backgroundOutline=1;darkOpacity=0.05;darkOpacity2=0.1;fillColor=#76608a;fontColor=#ffffff;strokeColor=#432D57;shadow=1;" vertex="1" parent="1">
          <mxGeometry x="484" y="135" width="40" height="250" as="geometry" />
        </mxCell>
        <mxCell id="LXoeNeeUd0DJWKhHdyv_-16" value="" style="shape=cube;whiteSpace=wrap;html=1;boundedLbl=1;backgroundOutline=1;darkOpacity=0.05;darkOpacity2=0.1;fillColor=#0050ef;fontColor=#ffffff;strokeColor=#001DBC;shadow=1;" vertex="1" parent="1">
          <mxGeometry x="440" y="180" width="60" height="160" as="geometry" />
        </mxCell>
        <mxCell id="LXoeNeeUd0DJWKhHdyv_-17" value="Trainable&lt;br&gt;Activation Function" style="text;html=1;strokeColor=none;fillColor=none;align=center;verticalAlign=middle;whiteSpace=wrap;rounded=0;" vertex="1" parent="1">
          <mxGeometry x="219" y="60" width="110" height="50" as="geometry" />
        </mxCell>
        <mxCell id="LXoeNeeUd0DJWKhHdyv_-18" value="W&lt;br&gt;" style="text;html=1;strokeColor=none;fillColor=none;align=center;verticalAlign=middle;whiteSpace=wrap;rounded=0;" vertex="1" parent="1">
          <mxGeometry x="134" y="70" width="60" height="30" as="geometry" />
        </mxCell>
        <mxCell id="LXoeNeeUd0DJWKhHdyv_-20" value="" style="endArrow=classic;html=1;rounded=0;exitX=0.5;exitY=1;exitDx=0;exitDy=0;" edge="1" parent="1" source="LXoeNeeUd0DJWKhHdyv_-18" target="LXoeNeeUd0DJWKhHdyv_-7">
          <mxGeometry width="50" height="50" relative="1" as="geometry">
            <mxPoint x="374" y="280" as="sourcePoint" />
            <mxPoint x="424" y="230" as="targetPoint" />
          </mxGeometry>
        </mxCell>
        <mxCell id="LXoeNeeUd0DJWKhHdyv_-21" value="" style="endArrow=classic;html=1;rounded=0;exitX=0.5;exitY=1;exitDx=0;exitDy=0;" edge="1" parent="1" source="LXoeNeeUd0DJWKhHdyv_-17" target="LXoeNeeUd0DJWKhHdyv_-13">
          <mxGeometry width="50" height="50" relative="1" as="geometry">
            <mxPoint x="374" y="280" as="sourcePoint" />
            <mxPoint x="424" y="230" as="targetPoint" />
          </mxGeometry>
        </mxCell>
        <mxCell id="LXoeNeeUd0DJWKhHdyv_-22" value="F(X,V,N x 1)" style="text;html=1;strokeColor=none;fillColor=none;align=center;verticalAlign=middle;whiteSpace=wrap;rounded=0;rotation=-90;" vertex="1" parent="1">
          <mxGeometry x="224" y="239" width="120" height="30" as="geometry" />
        </mxCell>
        <mxCell id="LXoeNeeUd0DJWKhHdyv_-23" value="" style="endArrow=classic;html=1;rounded=0;" edge="1" parent="1">
          <mxGeometry relative="1" as="geometry">
            <mxPoint x="164" y="420" as="sourcePoint" />
            <mxPoint x="574" y="420" as="targetPoint" />
          </mxGeometry>
        </mxCell>
        <mxCell id="LXoeNeeUd0DJWKhHdyv_-24" value="Depth x dt" style="edgeLabel;resizable=0;html=1;align=center;verticalAlign=middle;" connectable="0" vertex="1" parent="LXoeNeeUd0DJWKhHdyv_-23">
          <mxGeometry relative="1" as="geometry" />
        </mxCell>
        <mxCell id="LXoeNeeUd0DJWKhHdyv_-25" value="Input" style="edgeLabel;resizable=0;html=1;align=left;verticalAlign=bottom;" connectable="0" vertex="1" parent="LXoeNeeUd0DJWKhHdyv_-23">
          <mxGeometry x="-1" relative="1" as="geometry" />
        </mxCell>
        <mxCell id="LXoeNeeUd0DJWKhHdyv_-26" value="Target" style="edgeLabel;resizable=0;html=1;align=right;verticalAlign=bottom;" connectable="0" vertex="1" parent="LXoeNeeUd0DJWKhHdyv_-23">
          <mxGeometry x="1" relative="1" as="geometry" />
        </mxCell>
        <mxCell id="LXoeNeeUd0DJWKhHdyv_-28" value="T: Postprocessing" style="text;html=1;strokeColor=none;fillColor=none;align=center;verticalAlign=middle;whiteSpace=wrap;rounded=0;" vertex="1" parent="1">
          <mxGeometry x="614" y="85" width="106" height="30" as="geometry" />
        </mxCell>
        <mxCell id="LXoeNeeUd0DJWKhHdyv_-29" value="" style="endArrow=classic;html=1;rounded=0;exitX=0.5;exitY=1;exitDx=0;exitDy=0;" edge="1" parent="1" source="LXoeNeeUd0DJWKhHdyv_-28" target="LXoeNeeUd0DJWKhHdyv_-4">
          <mxGeometry width="50" height="50" relative="1" as="geometry">
            <mxPoint x="404" y="295" as="sourcePoint" />
            <mxPoint x="454" y="245" as="targetPoint" />
          </mxGeometry>
        </mxCell>
        <mxCell id="LXoeNeeUd0DJWKhHdyv_-30" value="x&lt;br style=&quot;font-size: 20px;&quot;&gt;&lt;br style=&quot;font-size: 20px;&quot;&gt;v" style="text;html=1;strokeColor=none;fillColor=none;align=center;verticalAlign=middle;whiteSpace=wrap;rounded=0;fontSize=20;spacing=2;" vertex="1" parent="1">
          <mxGeometry x="64" y="245" width="30" height="30" as="geometry" />
        </mxCell>
        <mxCell id="LXoeNeeUd0DJWKhHdyv_-31" value="" style="endArrow=classic;html=1;rounded=0;exitX=1;exitY=0.5;exitDx=0;exitDy=0;" edge="1" parent="1" source="LXoeNeeUd0DJWKhHdyv_-30">
          <mxGeometry width="50" height="50" relative="1" as="geometry">
            <mxPoint x="374" y="280" as="sourcePoint" />
            <mxPoint x="144" y="260" as="targetPoint" />
          </mxGeometry>
        </mxCell>
        <mxCell id="LXoeNeeUd0DJWKhHdyv_-32" value="x&#39;&lt;br style=&quot;font-size: 20px;&quot;&gt;&lt;br style=&quot;font-size: 20px;&quot;&gt;v&#39;" style="text;html=1;strokeColor=none;fillColor=none;align=center;verticalAlign=middle;whiteSpace=wrap;rounded=0;fontSize=20;spacing=2;" vertex="1" parent="1">
          <mxGeometry x="594" y="255" width="30" height="30" as="geometry" />
        </mxCell>
        <mxCell id="LXoeNeeUd0DJWKhHdyv_-33" value="" style="endArrow=classic;html=1;rounded=0;exitX=1;exitY=0.5;exitDx=0;exitDy=0;" edge="1" parent="1" source="LXoeNeeUd0DJWKhHdyv_-32">
          <mxGeometry width="50" height="50" relative="1" as="geometry">
            <mxPoint x="884" y="290" as="sourcePoint" />
            <mxPoint x="654" y="270" as="targetPoint" />
          </mxGeometry>
        </mxCell>
        <mxCell id="LXoeNeeUd0DJWKhHdyv_-34" value="" style="endArrow=classic;html=1;rounded=0;exitX=1.087;exitY=0.5;exitDx=0;exitDy=0;exitPerimeter=0;entryX=0;entryY=0.5;entryDx=0;entryDy=0;" edge="1" parent="1" target="LXoeNeeUd0DJWKhHdyv_-36">
          <mxGeometry width="50" height="50" relative="1" as="geometry">
            <mxPoint x="694.002" y="271" as="sourcePoint" />
            <mxPoint x="734" y="271" as="targetPoint" />
          </mxGeometry>
        </mxCell>
        <mxCell id="LXoeNeeUd0DJWKhHdyv_-36" value="[0,1]&lt;br style=&quot;font-size: 20px;&quot;&gt;&lt;br style=&quot;font-size: 20px;&quot;&gt;v&#39;" style="text;html=1;strokeColor=none;fillColor=none;align=center;verticalAlign=middle;whiteSpace=wrap;rounded=0;fontSize=20;spacing=2;" vertex="1" parent="1">
          <mxGeometry x="734" y="255" width="30" height="30" as="geometry" />
        </mxCell>
        <mxCell id="LXoeNeeUd0DJWKhHdyv_-37" value="" style="endArrow=classic;html=1;rounded=0;exitX=0;exitY=0;exitDx=60;exitDy=90;exitPerimeter=0;entryX=0;entryY=0.5;entryDx=0;entryDy=0;" edge="1" parent="1" source="LXoeNeeUd0DJWKhHdyv_-14" target="LXoeNeeUd0DJWKhHdyv_-32">
          <mxGeometry width="50" height="50" relative="1" as="geometry">
            <mxPoint x="414" y="280" as="sourcePoint" />
            <mxPoint x="464" y="230" as="targetPoint" />
          </mxGeometry>
        </mxCell>
        <mxCell id="LXoeNeeUd0DJWKhHdyv_-40" value="T(X)" style="text;html=1;strokeColor=none;fillColor=none;align=center;verticalAlign=middle;whiteSpace=wrap;rounded=0;rotation=-90;" vertex="1" parent="1">
          <mxGeometry x="646" y="266" width="60" height="30" as="geometry" />
        </mxCell>
      </root>
    </mxGraphModel>
  </diagram>
</mxfile>
